<?xml version="1.0" encoding="UTF-8" standalone="no"?>
<!-- Created with Inkscape (http://www.inkscape.org/) -->

<svg
   width="85.209763mm"
   height="74.182533mm"
   viewBox="0 0 85.209763 74.182533"
   version="1.1"
   id="svg2979"
   inkscape:version="1.2.2 (b0a84865, 2022-12-01)"
   sodipodi:docname="sketch_oblique_shock.svg"
   xmlns:inkscape="http://www.inkscape.org/namespaces/inkscape"
   xmlns:sodipodi="http://sodipodi.sourceforge.net/DTD/sodipodi-0.dtd"
   xmlns="http://www.w3.org/2000/svg"
   xmlns:svg="http://www.w3.org/2000/svg">
  <sodipodi:namedview
     id="namedview2981"
     pagecolor="#ffffff"
     bordercolor="#000000"
     borderopacity="0.25"
     inkscape:showpageshadow="2"
     inkscape:pageopacity="0.0"
     inkscape:pagecheckerboard="0"
     inkscape:deskcolor="#d1d1d1"
     inkscape:document-units="mm"
     showgrid="false"
     inkscape:zoom="1.4797686"
     inkscape:cx="163.53908"
     inkscape:cy="136.16994"
     inkscape:window-width="1800"
     inkscape:window-height="1097"
     inkscape:window-x="0"
     inkscape:window-y="44"
     inkscape:window-maximized="0"
     inkscape:current-layer="layer1" />
  <defs
     id="defs2976" />
  <g
     inkscape:label="Layer 1"
     inkscape:groupmode="layer"
     id="layer1"
     transform="translate(-56.81461,-118.95958)">
    <path
       fill-rule="nonzero"
       fill="#cccccc"
       fill-opacity="1"
       stroke-width="0.798695"
       stroke-linecap="square"
       stroke-linejoin="miter"
       stroke="#000000"
       stroke-opacity="1"
       stroke-miterlimit="10"
       d="m 80.721065,192.58595 -2.814026,-1.97014 48.114411,-68.7139 2.81402,1.97013 z m 0,0"
       id="path61329" />
    <path
       fill="none"
       stroke-width="0.423413"
       stroke-linecap="butt"
       stroke-linejoin="miter"
       stroke="#000000"
       stroke-opacity="1"
       stroke-miterlimit="10"
       d="M 56.81461,158.72512 H 99.155803"
       id="path61331" />
    <path
       fill-rule="evenodd"
       fill="#000000"
       fill-opacity="1"
       stroke-width="0.15878"
       stroke-linecap="square"
       stroke-linejoin="round"
       stroke="#000000"
       stroke-opacity="1"
       stroke-miterlimit="10"
       d="m 96.94159,157.70097 2.775742,1.02096 -2.775742,1.02096 c 0.443481,-0.603 0.440292,-1.42775 0,-2.04192 z m 0,0"
       id="path61333" />
    <path
       fill="none"
       stroke-width="0.423413"
       stroke-linecap="butt"
       stroke-linejoin="miter"
       stroke="#000000"
       stroke-opacity="1"
       stroke-dasharray="8.2944, 4.1472"
       stroke-miterlimit="10"
       d="M 90.471246,178.92261 H 115.55819"
       id="path61335" />
    <path
       fill="none"
       stroke-width="1.0368"
       stroke-linecap="butt"
       stroke-linejoin="miter"
       stroke="#000000"
       stroke-opacity="1"
       stroke-dasharray="8.2944, 4.1472"
       stroke-miterlimit="10"
       d="m 104.24466,158.72512 h 35.00303"
       id="path61337"
       style="stroke-width:0.423691;stroke-dasharray:3.38953, 1.69476;stroke-dashoffset:0" />
    <path
       fill="none"
       stroke-width="0.423413"
       stroke-linecap="butt"
       stroke-linejoin="miter"
       stroke="#000000"
       stroke-opacity="1"
       stroke-miterlimit="10"
       d="m 104.5318,158.75065 30.91599,-11.25291"
       id="path61339" />
    <path
       fill-rule="evenodd"
       fill="#000000"
       fill-opacity="1"
       stroke-width="0.15878"
       stroke-linecap="square"
       stroke-linejoin="round"
       stroke="#000000"
       stroke-opacity="1"
       stroke-miterlimit="10"
       d="m 133.01663,147.29354 2.9576,0.01 -2.25888,1.90792 c 0.21058,-0.71786 -0.075,-1.49155 -0.69882,-1.91745 z m 0,0"
       id="path61341" />
    <path
       fill-rule="nonzero"
       fill="#000000"
       fill-opacity="1"
       d="m 72.500729,152.56585 c 0.186644,0.91568 0.496122,2.42638 0.893342,3.24156 0.153144,0.29831 0.231309,0.45305 0.307881,0.45305 0.02234,0 0.04467,0 0.165906,-0.12124 0.540791,-0.51846 0.904511,-0.92684 1.389467,-1.48837 l 1.542608,-1.78669 c -0.09891,0.59503 -0.35255,2.17114 -0.35255,2.99908 0,0.18664 0.01115,0.37488 0.03349,0.56153 0,0.0782 0.03349,0.28715 0.330216,0.28715 0.298313,0 0.827939,-0.31905 0.827939,-0.45146 0,-0.0447 -0.04467,-0.0558 -0.067,-0.0558 -0.08774,0 -0.231309,0.067 -0.307881,0.11008 -0.165906,-0.0223 -0.177076,-0.13241 -0.199406,-0.28555 -0.02075,-0.23291 -0.02075,-0.44189 -0.02075,-0.46422 0,-0.78168 0.307881,-2.92091 0.51686,-3.79192 0.01115,-0.0447 0.01115,-0.0558 0.01115,-0.12124 0,-0.0223 0,-0.1005 -0.05424,-0.1005 -0.02234,0 -0.03349,0 -0.165906,0.16591 -0.662029,0.79443 -2.711928,3.26388 -3.418625,3.84775 -0.175479,-0.37489 -0.296716,-0.6397 -0.539194,-1.62078 -0.210576,-0.79284 -0.331813,-1.3783 -0.453054,-2.06106 -0.01115,-0.10051 -0.05424,-0.28715 -0.05424,-0.30949 -0.02234,-0.0335 -0.05583,-0.0335 -0.07817,-0.0335 -0.121238,0 -0.417958,0.15474 -0.440288,0.30948 -0.08774,0.58386 -0.220148,1.5107 -0.71627,2.8555 -0.563126,1.49954 -0.717863,1.49954 -0.850269,1.49954 -0.08774,0 -0.35255,-0.0542 -0.507291,-0.19782 -0.03189,-0.0335 -0.05424,-0.0335 -0.0654,-0.0335 -0.09891,0 -0.253648,0.31905 -0.253648,0.51845 0,0.0542 0,0.14358 0.231313,0.26482 0.177072,0.0877 0.341385,0.0989 0.374885,0.0989 0.441885,0 0.848672,-1.00341 0.992244,-1.36713 0.331813,-0.79444 0.727435,-1.90792 0.926845,-2.9225 z m 0,0"
       id="path61343"
       style="stroke-width:0.408385" />
    <path
       fill-rule="nonzero"
       fill="#000000"
       fill-opacity="1"
       d="m 79.873983,154.42592 c 0,-0.13241 0,-0.13241 -0.143572,-0.13241 -0.320647,0.30789 -0.760935,0.30789 -0.958748,0.30789 v 0.17707 c 0.110076,0 0.440292,0 0.705105,-0.13241 v 2.50295 c 0,0.16591 0,0.23131 -0.484957,0.23131 H 78.80357 v 0.17708 c 0.08933,0 0.695528,-0.0223 0.871007,-0.0223 0.154741,0 0.772104,0.0223 0.882176,0.0223 v -0.17708 h -0.186644 c -0.496126,0 -0.496126,-0.0654 -0.496126,-0.23131 z m 0,0"
       id="path61345"
       style="stroke-width:0.408385" />
    <path
       fill-rule="nonzero"
       fill="#000000"
       fill-opacity="1"
       d="m 130.68756,140.03515 c 0.18824,0.91567 0.49613,2.42637 0.89334,3.24155 0.15474,0.29831 0.23132,0.45146 0.30948,0.45146 0.0208,0 0.0431,0 0.16431,-0.12125 0.54079,-0.51686 0.90451,-0.92524 1.38947,-1.48837 l 1.5442,-1.78508 c -0.0989,0.59503 -0.35255,2.17113 -0.35255,2.99907 0,0.18665 0.0112,0.37489 0.0319,0.56153 0,0.0782 0.0335,0.28714 0.33181,0.28714 0.29671,0 0.82634,-0.32064 0.82634,-0.45304 0,-0.0431 -0.0431,-0.0542 -0.0654,-0.0542 -0.0893,0 -0.23131,0.0654 -0.30947,0.11008 -0.16432,-0.0223 -0.17548,-0.13241 -0.19782,-0.28715 -0.0223,-0.23131 -0.0223,-0.44029 -0.0223,-0.46262 0,-0.78327 0.30789,-2.9225 0.51846,-3.79351 0.0112,-0.0431 0.0112,-0.0542 0.0112,-0.12124 0,-0.0223 0,-0.0989 -0.0558,-0.0989 -0.0223,0 -0.0335,0 -0.16591,0.16591 -0.66043,0.79284 -2.71193,3.26389 -3.41703,3.84775 -0.17707,-0.37489 -0.29831,-0.6397 -0.54079,-1.62078 -0.20898,-0.79443 -0.33022,-1.37829 -0.45145,-2.06266 -0.0112,-0.0989 -0.0558,-0.28555 -0.0558,-0.30788 -0.0223,-0.0335 -0.0542,-0.0335 -0.0766,-0.0335 -0.12124,0 -0.41955,0.15474 -0.44188,0.30948 -0.0877,0.58386 -0.22015,1.5107 -0.71627,2.8555 -0.56313,1.49954 -0.71627,1.49954 -0.84868,1.49954 -0.0893,0 -0.35255,-0.0558 -0.50729,-0.19941 -0.0335,-0.0319 -0.0558,-0.0319 -0.067,-0.0319 -0.0989,0 -0.25365,0.31906 -0.25365,0.51846 0,0.0542 0,0.14198 0.23291,0.26322 0.17548,0.0893 0.34139,0.1005 0.37489,0.1005 0.44029,0 0.84867,-1.00342 0.99224,-1.36713 0.33022,-0.79444 0.72744,-1.90793 0.92525,-2.9225 z m 0,0"
       id="path61347"
       style="stroke-width:0.408385" />
    <path
       fill-rule="nonzero"
       fill="#000000"
       fill-opacity="1"
       d="m 138.89992,144.13335 h -0.1659 c -0.0111,0.11007 -0.067,0.39562 -0.13241,0.44029 -0.0335,0.0335 -0.40838,0.0335 -0.48496,0.0335 h -0.9045 c 0.51845,-0.45305 0.69393,-0.59663 0.98108,-0.82794 0.36371,-0.28555 0.70669,-0.59503 0.70669,-1.05765 0,-0.59503 -0.51845,-0.96034 -1.14698,-0.96034 -0.6062,0 -1.02575,0.43071 -1.02575,0.88217 0,0.24248 0.20898,0.27598 0.26481,0.27598 0.11007,0 0.25365,-0.0877 0.25365,-0.26481 0,-0.0877 -0.0335,-0.26482 -0.28715,-0.26482 0.15474,-0.34138 0.48496,-0.45145 0.71627,-0.45145 0.49612,0 0.74977,0.38605 0.74977,0.78327 0,0.42912 -0.30789,0.76093 -0.46263,0.93641 l -1.18048,1.18049 c -0.0542,0.0447 -0.0542,0.0542 -0.0542,0.18664 h 2.02916 z m 0,0"
       id="path61349"
       style="stroke-width:0.408385" />
    <path
       fill-rule="nonzero"
       fill="#000000"
       fill-opacity="1"
       d="m 106.60404,170.60337 c 0,-0.52803 -0.38605,-0.95875 -0.95875,-0.95875 -0.40839,0 -0.6062,0.11008 -0.84867,0.28715 -0.38606,0.28555 -0.77211,0.96992 -0.90452,1.49954 l -1.12465,4.46511 c 0,0.0335 0.0335,0.0766 0.0877,0.0766 0.0558,0 0.0782,-0.0207 0.0782,-0.0319 l 0.49612,-1.95259 c 0.13241,0.43072 0.44029,0.68436 0.95875,0.68436 0.50729,0 1.03691,-0.24248 1.35596,-0.55195 0.34139,-0.31905 0.56313,-0.7721 0.56313,-1.29056 0,-0.5057 -0.26481,-0.88058 -0.51846,-1.04649 0.40838,-0.24247 0.81518,-0.67319 0.81518,-1.18049 z m -1.26823,1.16932 c -0.0877,0.0335 -0.16431,0.0447 -0.34139,0.0447 -0.0989,0 -0.2313,0.0111 -0.30788,-0.0223 0.0208,-0.0782 0.27438,-0.0558 0.35255,-0.0558 0.14358,0 0.20898,0 0.29672,0.0335 z m 0.87101,-1.33363 c 0,0.49612 -0.26322,1.00342 -0.62853,1.22356 -0.19782,-0.0782 -0.33022,-0.0877 -0.5392,-0.0877 -0.15474,0 -0.55196,-0.0112 -0.55196,0.22015 0,0.19781 0.36372,0.17548 0.48496,0.17548 0.26481,0 0.37489,0 0.58546,-0.0877 0.26322,0.25365 0.29672,0.4738 0.30788,0.79444 0.0112,0.40679 -0.15474,0.93641 -0.35255,1.21239 -0.27598,0.37489 -0.74976,0.62853 -1.14698,0.62853 -0.54079,0 -0.80401,-0.40838 -0.80401,-0.90451 0,-0.0654 0,-0.17547 0.0319,-0.30788 l 0.45306,-1.77552 c 0.15314,-0.60619 0.66043,-1.73084 1.5107,-1.73084 0.40679,0 0.64927,0.22014 0.64927,0.63969 z m 0,0"
       id="path61351"
       style="stroke-width:0.408385" />
    <path
       fill-rule="nonzero"
       fill="#000000"
       fill-opacity="1"
       d="m 132.11531,153.29169 c 0,-0.46262 -0.12124,-1.4437 -0.8375,-1.4437 -0.98268,0 -2.06266,1.98449 -2.06266,3.5941 0,0.66203 0.19781,1.4453 0.8375,1.4453 0.99225,0 2.06266,-2.01799 2.06266,-3.5957 z m -2.16156,0.96035 c 0.12123,-0.44189 0.26481,-1.00342 0.55195,-1.51071 0.18665,-0.34298 0.44029,-0.7386 0.76094,-0.7386 0.34138,0 0.38605,0.45145 0.38605,0.84867 0,0.35255 -0.0558,0.7051 -0.22174,1.40064 z m 1.41179,0.2313 c -0.0766,0.31905 -0.22014,0.91409 -0.49612,1.42137 -0.24248,0.48656 -0.50729,0.82794 -0.81677,0.82794 -0.23131,0 -0.37488,-0.21057 -0.37488,-0.85984 0,-0.29831 0.0447,-0.7067 0.22174,-1.38947 z m 0,0"
       id="path61353"
       style="stroke-width:0.408385" />
    <path
       fill="none"
       stroke-width="0.529266"
       stroke-linecap="butt"
       stroke-linejoin="miter"
       stroke="#000000"
       stroke-opacity="1"
       stroke-miterlimit="10"
       d="m 97.211189,170.90966 c 1.207606,0.86144 2.415212,1.72128 3.125101,2.90017 0.70829,1.1773 0.92205,2.67364 1.13422,4.16839"
       id="path61355" />
    <path
       fill-rule="evenodd"
       fill="#000000"
       fill-opacity="1"
       stroke-width="0.0992376"
       stroke-linecap="square"
       stroke-linejoin="round"
       stroke="#000000"
       stroke-opacity="1"
       stroke-miterlimit="10"
       d="m 97.669028,172.02315 -1.043296,-1.52666 1.783493,0.48655 c -0.443482,0.14676 -0.741795,0.56632 -0.740062,1.0402 z m 0,0"
       id="path61357" />
    <path
       fill-rule="evenodd"
       fill="#000000"
       fill-opacity="1"
       stroke-width="0.0992375"
       stroke-linecap="square"
       stroke-linejoin="round"
       stroke="#000000"
       stroke-opacity="1"
       stroke-miterlimit="10"
       d="m 101.96026,176.87909 -0.38765,1.80742 -0.87419,-1.62715 c 0.41157,0.22014 0.92045,0.14676 1.26182,-0.18042 z m 0,0"
       id="path61359" />
    <path
       fill="none"
       stroke-width="0.529266"
       stroke-linecap="butt"
       stroke-linejoin="miter"
       stroke="#000000"
       stroke-opacity="1"
       stroke-miterlimit="10"
       d="m 124.2922,152.61371 c 0.603,0.61896 1.206,1.23792 1.51868,2.08181 0.31107,0.84229 0.3334,1.9127 0.35414,2.98152"
       id="path61361" />
    <path
       fill-rule="evenodd"
       fill="#000000"
       fill-opacity="1"
       stroke-width="0.0992377"
       stroke-linecap="square"
       stroke-linejoin="round"
       stroke="#000000"
       stroke-opacity="1"
       stroke-miterlimit="10"
       d="m 124.54584,153.79101 -0.75455,-1.68778 1.66704,0.79763 c -0.46263,0.0638 -0.83113,0.42433 -0.91249,0.89015 z m 0,0"
       id="path61363" />
    <path
       fill-rule="evenodd"
       fill="#000000"
       fill-opacity="1"
       stroke-width="0.0992375"
       stroke-linecap="square"
       stroke-linejoin="round"
       stroke="#000000"
       stroke-opacity="1"
       stroke-miterlimit="10"
       d="m 126.78557,156.64491 -0.60459,1.7468 -0.67161,-1.72127 c 0.38127,0.2696 0.89654,0.25683 1.2762,-0.0255 z m 0,0"
       id="path61365" />
    <g
       id="g11210"
       transform="matrix(0.42880387,0,0,0.42880387,-249.95913,-83.337004)">
      <path
         fill-rule="nonzero"
         fill="#000000"
         fill-opacity="1"
         d="m 822.80469,536.81641 c -1.49219,-1.04297 -3.5586,-0.76172 -4.55078,0.65625 -1.03125,1.47656 -0.54297,3.52343 0.91406,4.54296 1.52734,1.07032 3.5039,0.64063 4.47265,-0.74218 0.99219,-1.41797 0.66016,-3.41016 -0.83593,-4.45703 z m 0.55468,4.23437 c -0.36328,0.51563 -0.96093,0.86328 -1.73437,0.78906 -0.72266,-0.0664 -1.44141,-0.57031 -1.86719,-0.86718 -0.46094,-0.32032 -1.08594,-0.76172 -1.41015,-1.39844 -0.3125,-0.6875 -0.1836,-1.42188 0.15234,-1.90235 0.35937,-0.51562 0.96484,-0.83203 1.70312,-0.78125 0.71485,0.0312 1.39844,0.51172 1.83985,0.82032 0.42578,0.29687 1.07031,0.75 1.40625,1.36718 0.33984,0.65235 0.30859,1.39844 -0.0898,1.97266 z m 0,0"
         id="path61367" />
      <path
         fill-rule="nonzero"
         fill="#000000"
         fill-opacity="1"
         d="m 822.55078,533.10156 -3.72266,-2.60547 -1.05859,1.78516 0.37109,0.25781 c 0.57813,-0.82812 0.71875,-0.87109 1.3086,-0.45703 l 7.0039,4.90234 0.20313,-0.29296 c -0.0156,-0.0117 -0.11719,-0.22266 -0.4375,-0.94141 0.39062,0.0273 1.32812,-0.0547 1.9375,-0.92188 0.98047,-1.40234 0.67187,-3.42968 -0.83984,-4.48828 -1.4961,-1.04687 -3.45704,-0.71484 -4.39844,0.62891 -0.64453,0.92187 -0.44141,1.80469 -0.36719,2.13281 z m 3.125,2.13281 -2.41797,-1.6914 c -0.21875,-0.15625 -0.23828,-0.16797 -0.33203,-0.42578 -0.33984,-0.92578 0.0195,-1.63672 0.21094,-1.91407 0.375,-0.53125 0.98437,-0.73828 1.62109,-0.70312 0.69922,0.0195 1.375,0.46875 1.875,0.81641 0.42188,0.29687 1.10938,0.80468 1.41016,1.51171 0.1914,0.51563 0.26562,1.23047 -0.17188,1.85547 -0.375,0.53516 -0.94922,0.76563 -1.58203,0.73047 -0.35547,0 -0.39453,-0.0273 -0.61328,-0.17969 z m 0,0"
         id="path61369" />
      <path
         fill-rule="nonzero"
         fill="#000000"
         fill-opacity="1"
         d="m 823.44141,523.91016 -1.0586,1.78515 0.36719,0.25781 c 0.58203,-0.82812 0.71875,-0.87109 1.30859,-0.45703 l 6.1211,4.28516 c 0.51562,0.35937 0.42578,0.48828 -0.12891,1.28125 l 0.36719,0.25781 c 0.2539,-0.39844 0.67187,-1.03906 0.8789,-1.33203 0.20704,-0.29687 0.625,-0.85547 0.95313,-1.28516 l -0.36719,-0.25781 c -0.55469,0.79297 -0.64844,0.92188 -1.16406,0.5625 z m 0,0"
         id="path61371" />
      <path
         fill-rule="nonzero"
         fill="#000000"
         fill-opacity="1"
         d="m 828.69141,522.72266 -1.01954,1.73046 0.3711,0.25782 c 0.52734,-0.75391 0.67969,-0.8125 1.25,-0.41407 l 3.17187,2.21875 c 0.51563,0.36329 0.42578,0.49219 -0.1289,1.28516 l 0.36718,0.25781 c 0.23829,-0.38281 0.67188,-1.03906 0.86719,-1.3164 0.29688,-0.42578 0.59766,-0.81641 0.90235,-1.21094 l -0.3711,-0.25781 c -0.55469,0.79297 -0.63672,0.79297 -1.09765,0.46875 z m -2.01954,-1.46875 c -0.36718,-0.25782 -0.82031,-0.16407 -1.05078,0.16796 -0.25781,0.3711 -0.125,0.84766 0.1875,1.06641 0.3125,0.21875 0.8086,0.17969 1.06641,-0.1875 0.23047,-0.33203 0.16797,-0.78906 -0.20313,-1.04687 z m 0,0"
         id="path61373" />
      <path
         fill-rule="nonzero"
         fill="#000000"
         fill-opacity="1"
         d="m 837.12109,520.21484 2.10157,1.47266 c 0.53515,0.375 0.44531,0.50391 -0.0977,1.27734 l 0.37109,0.25782 c 0.25,-0.39844 0.67188,-1.03907 0.87891,-1.33594 0.21875,-0.3125 0.66406,-0.90625 0.96484,-1.30078 l -0.36718,-0.25782 c -0.55469,0.79297 -0.64844,0.92188 -1.17969,0.54688 l -6.58203,-4.60547 -0.17969,0.25781 0.75781,1.19141 c -0.43359,-0.0859 -1.50781,-0.12109 -2.16406,0.81641 -0.95703,1.36328 -0.67969,3.39843 0.85156,4.47265 1.47656,1.03125 3.45313,0.71485 4.41016,-0.64844 0.5664,-0.8125 0.40625,-1.64062 0.23437,-2.14453 z m -2.51562,-1.8164 1.65625,1.16015 c 0.39062,0.27344 0.57812,0.70703 0.67578,1.16016 0.0625,0.26172 0.10547,0.86719 -0.28516,1.42187 -0.59375,0.84766 -2.14453,0.83204 -3.49218,-0.10937 -1.39844,-0.98438 -1.8086,-2.47656 -1.19141,-3.36328 0.66016,-0.9375 2.00781,-0.70703 2.63672,-0.26953 z m 0,0"
         id="path61375" />
      <path
         fill-rule="nonzero"
         fill="#000000"
         fill-opacity="1"
         d="m 841.35156,513.74219 1.05078,0.73828 1.0586,-1.78906 -0.36719,-0.25782 c -0.57031,0.8125 -0.70703,0.85157 -1.29688,0.44141 l -4.16406,-2.91797 -1.08594,1.82422 0.3711,0.25781 c 0.5664,-0.8125 0.71875,-0.87109 1.30859,-0.45703 l 2.08203,1.45703 c 1.03125,0.72266 1.42188,1.84766 0.81641,2.71485 -0.68359,0.97656 -1.27344,0.64453 -1.88281,0.21875 l -3.90625,-2.73438 -1.08594,1.82031 0.37109,0.25782 c 0.64453,-0.91797 0.67969,-0.89454 1.71094,-0.17188 l 1.76953,1.23828 c 0.92188,0.64844 1.99219,1.39453 3.24219,-0.39453 0.46484,-0.66016 0.49609,-1.41016 0.008,-2.24609 z m 0,0"
         id="path61377" />
      <path
         fill-rule="nonzero"
         fill="#000000"
         fill-opacity="1"
         d="m 841.58203,509.0625 c -1.69922,-1.30078 -1.29687,-2.5 -1.01562,-2.90625 0.83984,-1.19922 2.51562,-0.21875 2.97656,0.10547 z m 0.25781,0.17969 2.29688,-3.28125 c 0.17969,-0.25782 0.20703,-0.29297 -0.0508,-0.47266 -1.16016,-0.81641 -2.75782,-0.96875 -3.77735,0.48828 -0.95312,1.36328 -0.5,3.30078 0.97657,4.33203 1.5664,1.09766 3.57421,0.66407 4.51562,-0.67968 1.00781,-1.44141 0.0703,-2.89063 -0.14844,-3.04688 -0.10937,-0.0742 -0.21093,-0.008 -0.26562,0.0625 -0.0625,0.0937 -0.0156,0.18359 0.0625,0.26563 0.93359,1.25781 0.18359,2.32421 0.10937,2.4375 -0.41406,0.58984 -1.08593,0.80468 -1.72265,0.76953 -0.79688,-0.0352 -1.57422,-0.57813 -1.9961,-0.875 z m 0,0"
         id="path61379" />
      <path
         fill-rule="nonzero"
         fill="#000000"
         fill-opacity="1"
         d="m 849.46094,499.26172 c 0.23437,-0.21875 1.08984,-1.05078 1.9375,-0.45703 0.58984,0.41406 0.78515,1.15625 0.14062,2.07812 -0.69531,0.9961 -1.65625,0.95313 -2.82422,0.46485 -0.17578,-0.0664 -0.21093,-0.0937 -0.30078,0.0351 -0.10547,0.14844 -0.0312,0.19922 0.17188,0.34375 l 1.5664,1.09766 c 0.20313,0.14062 0.27735,0.1914 0.36719,0.0625 0.0391,-0.0547 0.0352,-0.0859 -0.0312,-0.46094 -0.008,-0.0312 -0.0273,-0.0469 -0.0898,-0.42187 0.83984,-0.17969 1.23047,-0.70313 1.39843,-0.94141 0.94141,-1.34375 0.53907,-2.45313 -0.30859,-3.04688 -0.60937,-0.42578 -1.22266,-0.33203 -1.45703,-0.27734 -0.65625,0.11719 -1.07031,0.51172 -1.51172,0.94531 -0.59375,0.57422 -1.28516,1.2461 -1.96484,0.76563 -0.42578,-0.29688 -0.69922,-0.92578 0.0117,-1.9375 0.90234,-1.29297 2.02343,-0.61719 2.38671,-0.39063 0.11329,0.0781 0.1875,-0.0312 0.20313,-0.0508 0.11328,-0.16797 0.0586,-0.20703 -0.16016,-0.35937 l -1.19922,-0.83985 c -0.18359,-0.1289 -0.27734,-0.1914 -0.36718,-0.0625 -0.0391,0.0547 -0.0664,0.0899 -0.0195,0.33985 0.0117,0.0625 0.043,0.25 0.043,0.33203 -0.64453,0.21094 -0.97656,0.6914 -1.10937,0.875 -1.00391,1.4375 -0.52344,2.43359 0.14062,2.89844 0.40625,0.28515 0.86719,0.33203 1.34375,0.19921 0.56641,-0.17968 0.8711,-0.46093 1.63282,-1.1914 z m 0,0"
         id="path61381" />
      <path
         fill-rule="nonzero"
         fill="#000000"
         fill-opacity="1"
         d="m 853.29297,496.76953 c 0.51562,0.35938 0.42578,0.48828 -0.12891,1.28125 l 0.36719,0.25781 c 0.28125,-0.4375 0.67578,-1.03906 0.90625,-1.37109 0.20703,-0.29297 0.65234,-0.89063 0.95312,-1.28125 l -0.36718,-0.25781 c -0.55469,0.79297 -0.64453,0.92187 -1.16407,0.55859 l -2.17187,-1.52344 c -1.21875,-0.85156 -1.28906,-2.16406 -0.76953,-2.89843 0.52734,-0.75782 1.24609,-0.44922 1.92578,0.0312 l 2.74609,1.92187 c 0.51563,0.35938 0.42578,0.48828 -0.1289,1.28125 l 0.36718,0.25781 c 0.26563,-0.41797 0.67579,-1.03906 0.89454,-1.35156 0.20703,-0.29297 0.66406,-0.90625 0.95312,-1.28125 l -0.36719,-0.25781 c -0.42578,0.60547 -0.63281,0.90234 -0.98437,0.65625 l -2.25,-1.57422 c -1.01172,-0.71094 -1.36328,-0.95313 -2.04297,-0.88281 -0.32031,0.0234 -0.83203,0.24218 -1.30859,0.92578 -0.69532,0.99609 -0.35938,2 -0.0391,2.52734 l -4.1289,-2.89062 -1.0586,1.78515 0.3711,0.25782 c 0.57812,-0.82813 0.71875,-0.8711 1.30859,-0.45704 z m 0,0"
         id="path61383" />
      <path
         fill-rule="nonzero"
         fill="#000000"
         fill-opacity="1"
         d="m 859.19531,484.85156 c -1.49609,-1.04687 -3.5625,-0.76172 -4.55469,0.65625 -1.03125,1.47656 -0.54296,3.51953 0.91407,4.53906 1.53125,1.07422 3.5039,0.64454 4.47265,-0.73828 0.9961,-1.41797 0.66016,-3.41406 -0.83203,-4.45703 z m 0.55078,4.23047 c -0.36328,0.51563 -0.96093,0.86719 -1.73437,0.79297 -0.72266,-0.0664 -1.44141,-0.57031 -1.86719,-0.86719 -0.46094,-0.32422 -1.08594,-0.76172 -1.41016,-1.39844 -0.3125,-0.6875 -0.18359,-1.42187 0.15235,-1.90234 0.35937,-0.51562 0.96875,-0.83203 1.70312,-0.78516 0.71485,0.0352 1.39844,0.51172 1.83985,0.82422 0.42578,0.29688 1.07031,0.7461 1.40625,1.36719 0.33984,0.64844 0.30859,1.39844 -0.0899,1.96875 z m 0,0"
         id="path61385" />
      <path
         fill-rule="nonzero"
         fill="#000000"
         fill-opacity="1"
         d="m 860.59766,482.76562 c -1.91797,-1.33984 -1.74219,-2.64843 -1.30469,-3.27343 0.0781,-0.10938 0.61328,-0.83594 1.32031,-0.94532 -0.30078,0.50782 0,0.82422 0.14844,0.92969 0.3125,0.21875 0.6875,0.15235 0.90625,-0.16015 0.21875,-0.31641 0.20312,-0.6836 -0.16406,-0.94141 -0.79297,-0.55469 -1.88672,0.0273 -2.51954,0.92969 -1.03125,1.47265 -0.50781,3.43359 0.94922,4.45312 1.51172,1.0586 3.48438,0.71094 4.4375,-0.65625 1.09766,-1.5664 -0.0508,-2.94531 -0.16015,-3.02344 -0.10938,-0.0781 -0.19922,0.0508 -0.22657,0.0899 -0.0664,0.0898 -0.0547,0.15234 0.008,0.22265 0.85547,1.09375 0.46093,1.97266 0.16406,2.39454 -0.44141,0.6289 -1.66016,1.3125 -3.55859,-0.0195 z m 0,0"
         id="path61387" />
      <path
         fill-rule="nonzero"
         fill="#000000"
         fill-opacity="1"
         d="m 865.60937,479.17969 c 0.51563,0.35937 0.42579,0.48828 -0.1289,1.28125 l 0.37109,0.25781 c 0.25,-0.39844 0.6211,-0.96484 0.85156,-1.29688 0.25782,-0.36718 0.59766,-0.8164 0.95313,-1.28125 l -0.36719,-0.26171 c -0.55469,0.79296 -0.64453,0.92187 -1.16406,0.5625 l -1.21484,-0.85157 -0.11719,-1.20703 c 1.86719,-0.0391 2.8789,-0.0742 3.10156,0.082 0.22266,0.15625 0.11719,0.38282 -0.0391,0.60547 l 0.36719,0.25781 c 0.20312,-0.32812 0.67578,-1.03906 0.85546,-1.29687 0.23047,-0.33203 0.4961,-0.67188 0.7461,-0.98828 l -0.36719,-0.25781 c -0.3125,0.4414 -0.49219,0.69921 -1.42578,0.70312 l -3.14844,0.0234 c -0.0312,0.004 -0.14453,0.008 -0.17969,-0.0195 -0.0391,-0.0234 -0.16406,-1.375 -0.17578,-1.55078 -0.0742,-1.15235 0.23438,-1.67579 0.40235,-1.91407 l -0.36719,-0.25781 c -0.19531,0.35938 -0.29688,0.50391 -0.53125,0.83594 -0.29688,0.42578 -0.83203,1.14844 -0.96484,1.30078 l 0.36718,0.25781 c 0.15625,-0.21875 0.375,-0.25781 0.53907,-0.14062 0.24218,0.16797 0.2539,0.42187 0.28125,0.57812 l 0.25781,2.65235 -5.64063,-3.94922 -1.05859,1.78906 0.37109,0.25781 c 0.57813,-0.83203 0.71875,-0.87109 1.3086,-0.45703 z m 0,0"
         id="path61389" />
    </g>
    <path
       fill-rule="nonzero"
       fill="#000000"
       fill-opacity="1"
       d="m 95.464385,128.20316 c 0,-0.14677 0,-0.15634 -0.138785,-0.15634 -0.366909,0.37808 -0.88058,0.37808 -1.065627,0.37808 v 0.18345 c 0.119641,0 0.459433,0 0.762528,-0.15633 v 3.04055 c 0,0.21217 -0.01756,0.27598 -0.540791,0.27598 h -0.185047 v 0.18345 c 0.202595,-0.0176 0.70829,-0.0176 0.947578,-0.0176 0.229717,0 0.743387,0 0.945987,0.0176 v -0.18345 h -0.183455 c -0.532815,0 -0.542388,-0.0638 -0.542388,-0.27598 z m 0,0"
       id="path61391"
       style="stroke-width:0.408385" />
    <path
       fill="none"
       stroke-width="0.352844"
       stroke-linecap="square"
       stroke-linejoin="miter"
       stroke="#000000"
       stroke-opacity="1"
       stroke-miterlimit="10"
       d="m 98.311913,129.99941 c 0,1.70533 -1.381488,3.08841 -3.086813,3.08841 -1.705324,0 -3.086816,-1.38308 -3.086816,-3.08841 0,-1.70532 1.381492,-3.08681 3.086816,-3.08681 1.705325,0 3.086813,1.38149 3.086813,3.08681 z m 0,0"
       id="path61393" />
    <path
       fill="none"
       stroke-width="0.352844"
       stroke-linecap="square"
       stroke-linejoin="miter"
       stroke="#000000"
       stroke-opacity="1"
       stroke-miterlimit="10"
       d="m 141.84795,129.99941 c 0,1.70533 -1.38309,3.08841 -3.08841,3.08841 -1.70373,0 -3.08681,-1.38308 -3.08681,-3.08841 0,-1.70532 1.38308,-3.08681 3.08681,-3.08681 1.70532,0 3.08841,1.38149 3.08841,3.08681 z m 0,0"
       id="path61395" />
    <path
       fill-rule="nonzero"
       fill="#000000"
       fill-opacity="1"
       d="m 138.04327,131.50214 0.62534,-0.6062 c 0.9093,-0.80879 1.25865,-1.12146 1.25865,-1.70851 0,-0.6716 -0.52324,-1.14061 -1.2411,-1.14061 -0.66044,0 -1.09275,0.54239 -1.09275,1.06723 0,0.32064 0.29353,0.32064 0.31267,0.32064 0.1005,0 0.3031,-0.0638 0.3031,-0.31267 0,-0.14676 -0.11008,-0.3031 -0.31267,-0.3031 -0.0463,0 -0.0558,0 -0.0734,0.01 0.12921,-0.38605 0.44986,-0.59663 0.78964,-0.59663 0.53282,0 0.78168,0.47698 0.78168,0.95556 0,0.46741 -0.28555,0.92684 -0.61577,1.29534 l -1.12146,1.24909 c -0.0638,0.0654 -0.0638,0.0829 -0.0638,0.22014 h 2.17752 l 0.15633,-1.01936 h -0.13719 c -0.0367,0.17547 -0.0734,0.43231 -0.13879,0.52324 -0.0367,0.0463 -0.42273,0.0463 -0.55035,0.0463 z m 0,0"
       id="path61397"
       style="stroke-width:0.408385" />
  </g>
</svg>
